<svg xmlns="http://www.w3.org/2000/svg" xmlns:xlink="http://www.w3.org/1999/xlink" width="87.849" height="87.848" viewBox="0 0 87.849 87.848">
  <defs>
    <filter id="Path_24981" x="0" y="0" width="87.849" height="87.848" filterUnits="userSpaceOnUse">
      <feOffset dy="3" input="SourceAlpha"/>
      <feGaussianBlur stdDeviation="3" result="blur"/>
      <feFlood flood-opacity="0.161"/>
      <feComposite operator="in" in2="blur"/>
      <feComposite in="SourceGraphic"/>
    </filter>
  </defs>
  <g id="Group_36647" data-name="Group 36647" transform="translate(-144.011 -492)">
    <g transform="matrix(1, 0, 0, 1, 144.01, 492)" filter="url(#Path_24981)">
      <path id="Path_24981-2" data-name="Path 24981" d="M34.925,0A34.924,34.924,0,1,1,0,34.924,34.924,34.924,0,0,1,34.925,0Z" transform="translate(9 6)" fill="#01826e"/>
    </g>
    <g id="check" transform="translate(165.004 514.999)">
      <path id="Path_24982" data-name="Path 24982" d="M19.557,38.71a2.312,2.312,0,0,1-3.271,0L3.224,25.646a3.468,3.468,0,0,1,0-4.907L4.86,19.1a3.468,3.468,0,0,1,4.907,0l8.155,8.155L39.957,5.223a3.468,3.468,0,0,1,4.907,0L46.5,6.859a3.468,3.468,0,0,1,0,4.907Z" transform="translate(-2.208 -4.207)" fill="#fff"/>
    </g>
  </g>
</svg>
