<svg xmlns="http://www.w3.org/2000/svg" xmlns:xlink="http://www.w3.org/1999/xlink" width="115" height="115" viewBox="0 0 115 115">
  <defs>
    <filter id="Rectangle_Copy" x="0" y="0" width="115" height="115" filterUnits="userSpaceOnUse">
      <feOffset dy="10" input="SourceAlpha"/>
      <feGaussianBlur stdDeviation="10" result="blur"/>
      <feFlood flood-opacity="0.102"/>
      <feComposite operator="in" in2="blur"/>
      <feComposite in="SourceGraphic"/>
    </filter>
  </defs>
  <g id="Login_with" transform="translate(30 20)">
    <g transform="matrix(1, 0, 0, 1, -30, -20)" filter="url(#Rectangle_Copy)">
      <rect id="Rectangle_Copy-2" data-name="Rectangle Copy" width="55" height="55" rx="12" transform="translate(30 20)" fill="#fff"/>
    </g>
    <g id="Google_G" data-name="Google G" transform="translate(15 15)">
      <path id="Path" d="M8.316.665A12.781,12.781,0,0,0,1.3,6.794,10.327,10.327,0,0,0,.251,9.94,12.406,12.406,0,0,0,1.3,17.923a11.9,11.9,0,0,0,3.387,4.113A11.361,11.361,0,0,0,9.2,24.294a12.791,12.791,0,0,0,6.29.081,11.021,11.021,0,0,0,8.226-7.823,13.762,13.762,0,0,0,.323-6.532H12.429v4.839h6.694a5.63,5.63,0,0,1-2.5,3.79A6.7,6.7,0,0,1,13.88,19.7a9.261,9.261,0,0,1-2.984,0,6.979,6.979,0,0,1-2.742-1.21A7.406,7.406,0,0,1,5.332,14.7a7.123,7.123,0,0,1,0-4.839,8.3,8.3,0,0,1,1.774-2.9,6.5,6.5,0,0,1,3.71-2.016,6.945,6.945,0,0,1,3.629.161,7.927,7.927,0,0,1,2.661,1.532l2.258-2.258,1.21-1.21a12.645,12.645,0,0,0-3.952-2.5A13.3,13.3,0,0,0,8.316.665Z" transform="translate(0 0)" fill="#fff"/>
      <path id="Path-2" data-name="Path" d="M7.016.656a12.749,12.749,0,0,1,8.306.081,11.343,11.343,0,0,1,3.952,2.5l-1.21,1.21L15.806,6.7a5.922,5.922,0,0,0-2.661-1.532A7.856,7.856,0,0,0,9.516,5.01a8.378,8.378,0,0,0-3.71,2.016,7.259,7.259,0,0,0-1.774,2.9C2.661,8.881,1.371,7.833,0,6.785A12.781,12.781,0,0,1,7.016.656Z" transform="translate(1.3 0.01)" fill="#ea4335"/>
      <path id="Path-3" data-name="Path" d="M.251,3.145A16,16,0,0,1,1.3,0C2.67,1.048,3.961,2.1,5.332,3.145a7.123,7.123,0,0,0,0,4.839C3.961,9.032,2.67,10.081,1.3,11.129A12.475,12.475,0,0,1,.251,3.145Z" transform="translate(0 6.794)" fill="#fbbc05"/>
      <path id="Path-4" data-name="Path" d="M0,0H11.613a13.762,13.762,0,0,1-.323,6.532,11.5,11.5,0,0,1-3.145,5.161c-1.29-1.048-2.581-2.016-3.952-3.065a6.127,6.127,0,0,0,2.5-3.79H0Q0,2.419,0,0Z" transform="translate(12.348 10.02)" fill="#4285f4"/>
      <path id="Path-5" data-name="Path" d="M0,3.145C1.371,2.1,2.661,1.048,4.032,0A7.406,7.406,0,0,0,6.855,3.79,8.378,8.378,0,0,0,9.6,5a9.257,9.257,0,0,0,2.984,0,8.07,8.07,0,0,0,2.742-1.048C16.613,5,17.9,5.968,19.274,7.016a11.854,11.854,0,0,1-5.081,2.661A12.767,12.767,0,0,1,7.9,9.6,12.529,12.529,0,0,1,3.387,7.339,15.208,15.208,0,0,1,0,3.145Z" transform="translate(1.3 14.778)" fill="#34a853"/>
    </g>
  </g>
</svg>
