<svg xmlns="http://www.w3.org/2000/svg" width="655.359" height="655.359" fill-rule="evenodd" clip-rule="evenodd" image-rendering="optimizeQuality" shape-rendering="geometricPrecision" text-rendering="geometricPrecision" viewBox="0 0 6.827 6.827" id="allah">
  <path fill-rule="nonzero" d="M3.924.966c-.024.077.015.2.054.326.043.14.087.282.064.408a.289.289 0 0 1-.094.164.458.458 0 0 1-.178.095.084.084 0 0 1-.096-.124c.058-.109-.007-.188-.07-.265-.145-.178-.285-.35.19-.699l.05.068-.05-.068a.084.084 0 0 1 .13.095zm.519 1.116c-.021.108.044.243.11.378.12.244.24.492 0 .726l-.059-.06.059.06a.084.084 0 0 1-.066.024l-1.378-.003v-.084.084a.084.084 0 0 1-.084-.082c-.004-.046.005-.105.013-.157l.006-.038a.74.74 0 0 0-.064-.14c-.111-.208-.225-.42.221-.794a.084.084 0 0 1 .133.092c-.022.09.005.225.032.362.023.112.046.225.045.329h.185a1.673 1.673 0 0 0-.034-.053c-.126-.186-.245-.363.192-.73a.084.084 0 0 1 .133.092c-.02.084.02.216.062.349.036.116.072.233.076.342h.182c-.014-.02-.03-.04-.046-.059-.144-.182-.286-.36.147-.724a.084.084 0 0 1 .135.086z"></path>
  <path d="M2.457 4.72c.035.1.08.195.125.29.073.154.143.304.17.473v.01c-.003.045-.008.09-.012.134l-.01.1-.002.018-.014.01a.858.858 0 0 1-.287.144 1.76 1.76 0 0 1-.504.065c-.258 0-.567-.039-.778-.201a.559.559 0 0 1-.228-.456c0-.088.06-.173.115-.238.076-.091.168-.176.255-.258.229-.217.45-.434.599-.717l.037-.07.037.07c.055.104.12.201.194.293.09.112.19.216.293.316l.007.007.003.01zm-.204.748a.214.214 0 0 0 .1-.183c0-.045-.073-.114-.162-.198-.088-.084-.19-.18-.268-.302-.078.122-.18.218-.268.302-.089.084-.161.153-.161.198 0 .068.028.136.099.183.068.046.174.075.33.075a.604.604 0 0 0 .33-.075z"></path>
  <path d="m2.732 5.487-.001-.01c-.032-.18-.1-.338-.178-.502a3.903 3.903 0 0 1-.077-.168 1.008 1.008 0 0 1-.088-.494c.022-.242.14-.475.273-.675l.075-.112.002.135a3.5 3.5 0 0 0 .03.378c.018.136.04.271.06.407.029.18.058.361.076.543.016.16.025.331.005.492a.042.042 0 0 0 .043.047h.705a.042.042 0 0 0 .04-.05c-.03-.181-.1-.339-.177-.503a3.897 3.897 0 0 1-.077-.168 1.008 1.008 0 0 1-.089-.494c.022-.242.141-.475.274-.675l.075-.112.002.135a3.5 3.5 0 0 0 .03.378c.017.136.039.271.06.407.029.18.058.361.076.543.016.16.025.331.005.492a.042.042 0 0 0 .042.047h.706a.042.042 0 0 0 .04-.05c-.03-.181-.1-.339-.177-.503a3.893 3.893 0 0 1-.077-.168 1.006 1.006 0 0 1-.09-.483c.019-.235.13-.46.255-.655l.078-.12v.142c-.002.314.104.598.213.886.078.207.159.42.184.641a1.1 1.1 0 0 1-.168.734l-.013.02-2.175-.008v-.043a2.47 2.47 0 0 1 .013-.173v-.002l.01-.111c.006-.049.011-.097.015-.146v-.002zM5.727 3.66c.002.126.015.253.03.378.017.136.039.271.06.407l.008.05c.036.228.073.462.082.693.008.193-.003.425-.103.596l-.1.168.022-.195a1.064 1.064 0 0 0-.037-.423 2.384 2.384 0 0 0-.147-.36 3.895 3.895 0 0 1-.077-.168 1.008 1.008 0 0 1-.089-.494c.022-.242.141-.475.274-.675l.075-.112.002.135z"></path>
  <path fill="none" d="M0 0h6.827v6.827H0z"></path>
</svg>
