<?xml version="1.0" encoding="iso-8859-1"?>
<!-- Uploaded to: SVG Repo, www.svgrepo.com, Generator: SVG Repo Mixer Tools -->
<svg fill="#000000" height="800px" width="800px" version="1.1" id="Layer_1" xmlns="http://www.w3.org/2000/svg" xmlns:xlink="http://www.w3.org/1999/xlink" 
	 viewBox="0 0 511.998 511.998" xml:space="preserve">
<g>
	<g>
		<path d="M435.804,378.838c-5.223-2.458-11.448-0.213-13.903,5.008c-4.662,9.913-14.717,16.318-25.616,16.318
			c-10.901,0-20.956-6.404-25.614-16.316c-1.723-3.664-5.406-6.004-9.455-6.004h-0.001c-4.048,0-7.732,2.338-9.455,6.002
			c-4.663,9.913-14.718,16.318-25.616,16.318c-10.902,0-20.957-6.404-25.615-16.316c-1.723-3.664-5.407-6.004-9.456-6.004
			c-4.048,0-7.732,2.338-9.455,6.002c-4.661,9.913-14.715,16.318-25.614,16.318c-10.902,0-20.957-6.404-25.615-16.315
			c-1.722-3.664-5.405-6.004-9.454-6.005c-0.001,0-0.002,0-0.002,0c-4.048,0-7.732,2.338-9.455,6.002
			c-4.662,9.913-14.717,16.318-25.616,16.318c-10.901,0-20.955-6.404-25.613-16.315c-1.722-3.664-5.405-6.004-9.454-6.005
			c-0.001,0-0.002,0-0.002,0c-4.048,0-7.732,2.337-9.455,6.001c-4.663,9.913-14.719,16.319-25.618,16.319
			c-10.902,0-20.956-6.404-25.615-16.316c-2.453-5.221-8.679-7.468-13.901-5.011c-5.222,2.454-7.466,8.679-5.011,13.901
			c8.087,17.205,25.566,28.324,44.529,28.324c13.341,0,25.949-5.507,35.07-14.765c9.118,9.259,21.727,14.765,35.072,14.765
			c13.341,0,25.95-5.508,35.071-14.765c9.119,9.259,21.729,14.765,35.074,14.765c13.341,0,25.95-5.507,35.07-14.765
			c9.119,9.259,21.728,14.765,35.073,14.765c13.342,0,25.95-5.507,35.07-14.765c9.119,9.259,21.728,14.765,35.073,14.765
			c18.957,0,36.435-11.118,44.526-28.322C443.267,387.519,441.026,381.294,435.804,378.838z"/>
	</g>
</g>
<g>
	<g>
		<path d="M365.661,435.172c-5.22-2.458-11.447-0.213-13.902,5.008c-4.663,9.913-14.718,16.318-25.616,16.318
			c-10.902,0-20.957-6.404-25.615-16.316c-1.723-3.664-5.407-6.004-9.456-6.004c-4.048,0-7.732,2.338-9.455,6.002
			c-4.661,9.913-14.715,16.318-25.614,16.318c-10.902,0-20.957-6.404-25.615-16.315c-1.722-3.664-5.405-6.004-9.454-6.005
			c-0.001,0-0.002,0-0.002,0c-4.048,0-7.733,2.338-9.455,6.002c-4.663,9.913-14.718,16.318-25.617,16.318
			c-10.901,0-20.955-6.404-25.613-16.315c-2.453-5.223-8.676-7.467-13.901-5.013c-5.222,2.456-7.467,8.679-5.012,13.901
			c8.086,17.206,25.564,28.325,44.527,28.325c13.341,0,25.95-5.508,35.071-14.765c9.119,9.259,21.728,14.765,35.074,14.765
			c13.341,0,25.95-5.507,35.07-14.765c9.119,9.259,21.728,14.765,35.073,14.765c18.956,0,36.434-11.118,44.526-28.322
			C373.126,443.853,370.884,437.628,365.661,435.172z"/>
	</g>
</g>
<g>
	<g>
		<path d="M505.982,323.343c-5.226-2.449-11.447-0.2-13.896,5.026c-4.649,9.918-14.719,16.326-25.657,16.326
			c-10.902,0-20.956-6.404-25.614-16.315c-1.722-3.664-5.406-6.004-9.455-6.005c-0.001,0-0.001,0-0.001,0
			c-4.048,0-7.732,2.339-9.455,6.002c-2.908,6.182-7.913,10.997-13.912,13.749c-6.628-78.047-72.259-139.535-151.992-139.535
			s-145.365,61.488-151.992,139.535c-5.998-2.751-11.002-7.566-13.906-13.747c-1.722-3.664-5.406-6.004-9.455-6.004
			s-7.733,2.338-9.456,6.002c-4.661,9.913-14.716,16.318-25.614,16.318c-10.94,0-21.013-6.408-25.662-16.326
			c-2.449-5.226-8.669-7.475-13.896-5.026c-5.225,2.45-7.475,8.672-5.026,13.896c8.075,17.225,25.575,28.355,44.584,28.355
			c13.34,0,25.95-5.507,35.068-14.765c9.12,9.259,21.728,14.765,35.073,14.765c13.341,0,25.949-5.507,35.07-14.765
			c9.119,9.259,21.727,14.765,35.072,14.765c13.341,0,25.95-5.508,35.071-14.765c9.119,9.259,21.727,14.765,35.074,14.765
			c13.341,0,25.95-5.507,35.07-14.765c9.12,9.259,21.728,14.765,35.073,14.765c13.342,0,25.95-5.507,35.07-14.765
			c9.119,9.259,21.728,14.765,35.073,14.765c13.341,0,25.951-5.508,35.071-14.765c9.119,9.259,21.727,14.765,35.073,14.765
			c19.006,0,36.504-11.129,44.579-28.355C513.458,332.013,511.207,325.792,505.982,323.343z M370.672,328.379
			c-1.722-3.664-5.406-6.004-9.455-6.004h-0.001c-4.049,0-7.732,2.338-9.455,6.002c-4.662,9.913-14.718,16.318-25.616,16.318
			c-10.902,0-20.957-6.404-25.615-16.316c-1.722-3.664-5.406-6.004-9.455-6.004c0,0,0,0-0.001,0c-4.049,0-7.732,2.338-9.455,6.002
			c-4.661,9.913-14.715,16.318-25.614,16.318c-10.902,0-20.957-6.404-25.615-16.315c-1.722-3.664-5.405-6.004-9.454-6.005
			c-0.001,0-0.001,0-0.001,0c-4.049,0-7.733,2.339-9.456,6.002c-4.662,9.913-14.717,16.318-25.616,16.318
			c-10.902,0-20.955-6.404-25.613-16.315c-1.722-3.664-5.405-6.004-9.454-6.005c-0.001,0-0.001,0-0.001,0
			c-4.049,0-7.732,2.337-9.455,6.001c-3.306,7.029-9.329,12.28-16.436,14.749c6.092-66.981,62.558-119.638,131.102-119.638
			c68.543,0,125.01,52.654,131.102,119.636C379.994,340.655,373.974,335.406,370.672,328.379z"/>
	</g>
</g>
<g>
	<g>
		<path d="M157.475,206.62l-95.09-94.166c-4.099-4.06-10.716-4.029-14.777,0.072c-4.06,4.1-4.029,10.716,0.072,14.777l95.09,94.166
			c2.036,2.018,4.695,3.025,7.352,3.025c2.691,0,5.382-1.033,7.425-3.097C161.607,217.297,161.576,210.681,157.475,206.62z"/>
	</g>
</g>
<g>
	<g>
		<path d="M255.998,34.603c-5.77,0-10.449,4.679-10.449,10.449v133.746c0,5.77,4.679,10.449,10.449,10.449
			c5.771,0,10.449-4.679,10.449-10.449V45.052C266.447,39.282,261.769,34.603,255.998,34.603z"/>
	</g>
</g>
<g>
	<g>
		<path d="M212.943,183.022l-25.391-64.964c-2.1-5.374-8.156-8.031-13.535-5.928c-5.375,2.1-8.029,8.159-5.928,13.535l25.391,64.964
			c1.612,4.125,5.557,6.648,9.734,6.648c1.264,0,2.551-0.232,3.801-0.72C212.39,194.457,215.044,188.398,212.943,183.022z"/>
	</g>
</g>
<g>
	<g>
		<path d="M174.695,85.136l-9.854-26.987c-1.979-5.422-7.978-8.209-13.399-6.232c-5.422,1.979-8.212,7.978-6.232,13.399
			l9.854,26.987c1.549,4.238,5.553,6.868,9.817,6.868c1.19,0,2.4-0.206,3.582-0.636C173.885,96.555,176.674,90.556,174.695,85.136z"
			/>
	</g>
</g>
<g>
	<g>
		<path d="M344.81,115.125c-5.282-2.328-11.449,0.065-13.777,5.346l-27.948,63.391c-2.328,5.281,0.065,11.448,5.346,13.777
			c1.371,0.604,2.801,0.891,4.21,0.891c4.014,0,7.843-2.327,9.567-6.237l27.948-63.391
			C352.483,123.621,350.09,117.454,344.81,115.125z"/>
	</g>
</g>
<g>
	<g>
		<path d="M370.162,55.521c-5.321-2.232-11.445,0.272-13.678,5.594l-11.341,27.036c-2.232,5.322,0.273,11.445,5.594,13.678
			c1.32,0.554,2.69,0.816,4.037,0.816c4.082,0,7.961-2.41,9.639-6.41l11.342-27.036C377.988,63.877,375.483,57.754,370.162,55.521z"
			/>
	</g>
</g>
<g>
	<g>
		<path d="M491.909,226.373c-2.159-5.353-8.246-7.939-13.598-5.786l-76.799,30.952c-5.352,2.158-7.942,8.245-5.786,13.598
			c1.641,4.073,5.558,6.546,9.694,6.546c1.301,0,2.623-0.245,3.904-0.761l76.799-30.952
			C491.475,237.814,494.065,231.726,491.909,226.373z"/>
	</g>
</g>
<g>
	<g>
		<path d="M109.829,252.367l-72.248-28.166c-5.374-2.092-11.433,0.563-13.53,5.94c-2.096,5.377,0.563,11.434,5.94,13.531
			l72.247,28.166c1.247,0.486,2.53,0.717,3.792,0.717c4.181,0,8.128-2.527,9.739-6.657
			C117.864,260.521,115.206,254.464,109.829,252.367z"/>
	</g>
</g>
<g>
	<g>
		<path d="M464.277,111.453c-4.073-4.087-10.689-4.099-14.778-0.028l-95.331,94.967c-4.089,4.074-4.101,10.689-0.028,14.778
			c2.042,2.048,4.723,3.074,7.403,3.074c2.668,0,5.335-1.016,7.375-3.046l95.331-94.967
			C468.337,122.157,468.349,115.542,464.277,111.453z"/>
	</g>
</g>
</svg>