<?xml version="1.0" encoding="utf-8" ?>
<svg xmlns="http://www.w3.org/2000/svg" xmlns:xlink="http://www.w3.org/1999/xlink" width="24" height="24" viewBox="0 0 24 24">
	<defs>
		<clipPath id="clipPath7574892360">
			<path transform="matrix(1 0 0 1 0 0)" d="M0 0L24 0L24 24L0 24L0 0Z" fill-rule="nonzero"/>
		</clipPath>
	</defs>
	<g clip-path="url(#clipPath7574892360)">
		<path transform="matrix(1 0 0 1 2.24995 2.25)" d="M1.12738 15.3659Q1.1116 15.4239 1.1156 15.4664Q1.11516 15.4617 1.10806 15.4391Q1.0816 15.3549 1.01489 15.2382Q1.00435 15.2208 0.985192 15.1921Q0.966032 15.1635 0.94544 15.1358L0.932611 15.1186L0.920789 15.1007Q0.103365 13.861 -0.32332 12.4387Q-0.750005 11.0164 -0.749954 9.53154Q-0.75648 7.43977 0.0677618 5.52582Q0.86287 3.67952 2.31714 2.25657Q3.76951 0.835473 5.65497 0.0562404Q7.60577 -0.75 9.74208 -0.75Q11.6061 -0.75 13.3428 -0.129314Q15.0214 0.470619 16.408 1.58642Q17.7839 2.69367 18.7112 4.17858Q19.6584 5.6954 20.0265 7.4311Q20.1376 7.94937 20.1937 8.47802Q20.2499 9.0067 20.25 9.53834Q20.25 11.6348 19.4527 13.5507Q18.6781 15.4122 17.2616 16.8449Q15.8367 18.286 13.9775 19.0751Q12.0464 19.8947 9.90989 19.8947Q9.25489 19.8947 8.38313 19.7554Q7.63938 19.6365 7.06072 19.4746Q6.30918 19.2642 5.56815 18.9781Q5.50867 18.9552 5.4449 18.9433Q5.38112 18.9315 5.31624 18.9314Q5.24429 18.9311 5.17572 18.9449Q5.10717 18.9587 5.04277 18.986L5.02407 18.9939L1.82543 20.1483L1.57083 19.4428L1.86771 20.1315Q1.76321 20.1766 1.65312 20.2054Q1.54302 20.2341 1.42985 20.2459L1.38986 20.2501L1.34966 20.25Q0.848528 20.2485 0.497312 19.891Q0.146096 19.5336 0.153408 19.0325L0.153737 19.01L0.155418 18.9875Q0.161311 18.9087 0.175482 18.831Q0.189653 18.7533 0.211942 18.6775L1.12826 15.3627L1.12738 15.3659ZM2.57402 15.7623L1.65096 19.1009Q1.65107 19.1005 1.65114 19.1001Q1.65121 19.0998 1.65124 19.0994L0.903328 19.0434L1.65325 19.0544Q1.65508 18.9291 1.56727 18.8398Q1.47947 18.7504 1.35418 18.75L1.35192 19.5L1.274 18.7541Q1.27399 18.7541 1.27397 18.7541L1.27395 18.7541L1.29483 18.7451L4.49576 17.5898L4.75036 18.2953L4.45795 17.6047Q4.66245 17.5181 4.88016 17.4743Q5.09788 17.4306 5.31791 17.4314Q5.52036 17.4316 5.71941 17.4687Q5.91844 17.5057 6.10851 17.5788Q6.78257 17.8391 7.465 18.0301Q7.96093 18.1689 8.61981 18.2742Q9.37398 18.3947 9.90989 18.3947Q11.7413 18.3947 13.3915 17.6943Q14.9782 17.0209 16.1949 15.7903Q17.4056 14.5657 18.0679 12.9743Q18.75 11.3351 18.75 9.53885Q18.7499 9.08634 18.7021 8.63636Q18.6544 8.18638 18.5592 7.74234Q18.2459 6.26547 17.4389 4.97308Q16.6459 3.70328 15.4676 2.75503Q14.2782 1.79792 12.838 1.28319Q11.3461 0.75 9.74208 0.75Q7.90352 0.75 6.22789 1.44251Q4.61092 2.11079 3.36619 3.32871Q2.12348 4.54466 1.44544 6.11912Q0.744485 7.74679 0.750046 9.53159Q0.750002 10.7963 1.11342 12.0077Q1.47684 13.2191 2.17305 14.2749L1.54692 14.6878L2.1484 14.2398Q2.19185 14.2981 2.23225 14.3586Q2.27267 14.419 2.31707 14.4937Q2.72492 15.207 2.5749 15.7591L2.57402 15.7623Z" fill-rule="nonzero" fill="rgb(117, 117, 117)"/>
	</g>
</svg>
