<svg xmlns="http://www.w3.org/2000/svg" enable-background="new 0 0 32 32" viewBox="0 0 32 32" id="clock">
  <path d="M16,1C7.73,1,1,7.73,1,16s6.73,15,15,15s15-6.73,15-15S24.27,1,16,1z M15.185,28.056c-0.262,0.022-0.579,0.02-0.943-0.011c-0.366-0.018-0.783-0.034-1.224-0.138c-0.223-0.042-0.456-0.086-0.697-0.132c-0.234-0.072-0.477-0.147-0.726-0.224c-0.508-0.133-1.001-0.388-1.527-0.615c-0.49-0.292-1.034-0.545-1.503-0.927c-0.502-0.338-0.944-0.765-1.403-1.171c-0.406-0.46-0.833-0.901-1.171-1.403c-0.38-0.47-0.635-1.013-0.926-1.504c-0.227-0.526-0.48-1.019-0.614-1.527c-0.077-0.249-0.152-0.491-0.224-0.726c-0.046-0.241-0.09-0.474-0.132-0.697c-0.103-0.44-0.12-0.862-0.139-1.229c-0.031-0.368-0.033-0.681-0.011-0.939C3.971,16.296,4,16,4,16s0.059,0.292,0.138,0.804c0.027,0.258,0.088,0.567,0.185,0.907c0.086,0.343,0.176,0.724,0.325,1.133c0.068,0.204,0.14,0.417,0.213,0.637c0.091,0.213,0.186,0.433,0.283,0.659c0.168,0.462,0.463,0.895,0.691,1.373c0.296,0.443,0.573,0.917,0.929,1.347c0.319,0.458,0.724,0.855,1.104,1.272c0.418,0.379,0.814,0.784,1.272,1.103c0.431,0.354,0.904,0.632,1.347,0.928c0.478,0.229,0.912,0.522,1.373,0.691c0.448,0.203,0.881,0.373,1.296,0.496c0.408,0.149,0.794,0.24,1.138,0.326c0.343,0.098,0.648,0.158,0.903,0.185C15.705,27.941,16,28,16,28S15.707,28.03,15.185,28.056z M22.71,22.71C22.51,22.9,22.26,23,22,23s-0.51-0.1-0.71-0.29l-4.78-4.78C16.35,17.97,16.18,18,16,18c-1.1,0-2-0.9-2-2c0-0.74,0.41-1.38,1-1.72V6c0-0.55,0.45-1,1-1s1,0.45,1,1v8.28c0.59,0.34,1,0.98,1,1.72c0,0.18-0.03,0.35-0.07,0.51l4.78,4.78C23.1,21.68,23.1,22.32,22.71,22.71z"></path>
</svg>
