<svg xmlns="http://www.w3.org/2000/svg" enable-background="new 0 0 64 64" viewBox="0 0 64 64" id="donate">
  <path fill="#2b2b2b" d="M48.97,3.33l-2,12C46.81,16.29,45.98,17,45,17H33c-0.98,0-1.81-0.71-1.97-1.67l-2-12
			c-0.1-0.58,0.06-1.17,0.44-1.62C29.85,1.26,30.41,1,31,1h1.53C35,1,37.31,1.97,39,3.64C40.69,1.97,43,1,45.47,1H47
			c0.59,0,1.15,0.26,1.53,0.71C48.91,2.16,49.07,2.75,48.97,3.33z"></path>
  <path fill="#2b2b2b" d="M49.362,14.677C48.415,13.611,47.053,13,45.626,13H31c-1.104,0-2,0.896-2,2s0.896,2,2,2h14.626
			c0.391,0,0.636,0.21,0.747,0.335c0.111,0.126,0.292,0.395,0.246,0.782l-1.294,11C45.266,29.62,44.839,30,44.332,30H28.333
			c-1.719,0-3.424-0.568-4.8-1.6l-1.333-1c-0.346-0.26-0.767-0.4-1.2-0.4h-1V13h2c0.629,0,1.222-0.296,1.6-0.8
			C25.103,10.196,27.496,9,30,9h2c1.104,0,2-0.896,2-2s-0.896-2-2-2h-2c-3.41,0-6.682,1.479-8.943,4h-1.198
			C19.413,7.277,17.863,6,16,6H9C7.52,6,6.23,6.8,5.54,8C5.2,8.59,5,9.27,5,10v20c0,0.73,0.2,1.41,0.54,2c0.69,1.2,1.98,2,3.46,2h7
			c1.863,0,3.413-1.277,3.859-3h0.475l0.8,0.601c2.064,1.547,4.621,2.399,7.2,2.399h15.999c2.535,0,4.669-1.898,4.966-4.416
			l1.294-11C50.759,17.167,50.311,15.743,49.362,14.677z M16,30h-3V10h3V30z"></path>
  <path fill="#2b2b2b" d="M52.87,35.4l-6.67-5C45.85,30.14,45.43,30,45,30H31c-0.43,0-0.85,0.14-1.2,0.4L27.67,32l-4.54,3.4
			C19.29,38.28,17,42.87,17,47.67c0,5.44,2.85,10.22,7.13,12.94c2.37,1.52,5.18,2.39,8.2,2.39H36v-7h-2c-3.31,0-6-2.69-6-6v-4
			c0-1.1,0.9-2,2-2h2.02c-0.09-1.66,0.5-3.35,1.74-4.59l2.83-2.82c0.78-0.79,2.04-0.79,2.82,0l2.83,2.82
			c1.26,1.26,1.84,2.93,1.74,4.59H46c1.1,0,2,0.9,2,2v4c0,3.31-2.69,6-6,6h-2v7h3.67C52.12,63,59,56.12,59,47.67
			C59,42.87,56.71,38.28,52.87,35.4z M46.12,58.73c3.55-2.4,5.88-6.46,5.88-11.06c0-4.2-1.98-8.15-5.33-10.67l-4-3
			c1.08,0,2.13,0.35,2.99,1l4.81,3.6c2.84,2.13,4.53,5.52,4.53,9.07C55,53.08,51.2,57.61,46.12,58.73z M44,50v-2h-2
			c-1.1,0-2,0.9-2,2v2h2C43.1,52,44,51.1,44,50z M38,40.83l-1.41,1.41c-0.58,0.58-0.74,1.43-0.44,2.16
			c0.69,0.27,1.31,0.66,1.85,1.14c0.54-0.48,1.16-0.87,1.85-1.14c0.3-0.73,0.15-1.58-0.44-2.16L38,40.83z M34,48h-2v2
			c0,1.1,0.9,2,2,2h2v-2C36,48.9,35.1,48,34,48z"></path>
</svg>
