<svg xmlns="http://www.w3.org/2000/svg" viewBox="0 0 168 168" id="list">
  <path fill="#0bceb2" d="M114.5 61.02h-58a2 2 0 1 0 0 4h58a2 2 0 0 0 0-4Z"></path>
  <path fill="#2d4356" d="M56.5 75.02h44a2 2 0 0 0 0-4h-44a2 2 0 1 0 0 4Z"></path>
  <path fill="#0bceb2" d="M114.5 81.02h-58a2 2 0 1 0 0 4h58a2 2 0 0 0 0-4Z"></path>
  <path fill="#2d4356" d="M56.5 95.02h44a2 2 0 0 0 0-4h-44a2 2 0 1 0 0 4Z"></path>
  <path fill="#0bceb2" d="M114.5 101.02h-58a2 2 0 1 0 0 4h58a2 2 0 0 0 0-4Z"></path>
  <path fill="#2d4356" d="M56.5 115.02h44a2 2 0 0 0 0-4h-44a2 2 0 1 0 0 4Z"></path>
  <path fill="#0bceb2" d="M114.5 121.02h-58a2 2 0 1 0 0 4h58a2 2 0 0 0 0-4Z"></path>
  <path fill="#2d4356" d="M100.5 131.02h-44a2 2 0 0 0 0 4h44a2 2 0 0 0 0-4Z"></path>
  <path fill="#0bceb2" d="M114.5 41.02h-58a2 2 0 1 0 0 4h58a2 2 0 0 0 0-4Z"></path>
  <path fill="#2d4356" d="M56.5 55.02h44a2 2 0 0 0 0-4h-44a2 2 0 1 0 0 4Z"></path>
  <circle cx="2" cy="150.019" r="2" fill="#2d4356"></circle>
  <path fill="#2d4356" d="M11 148.02H8a2 2 0 0 0 0 4h3a2 2 0 0 0 0-4Z"></path>
  <path fill="#0bceb2" d="M118.154 156.02h-8.308a2.006 2.006 0 0 0 0 4h8.308a2.006 2.006 0 0 0 0-4zm-60 0h-8.308a2.006 2.006 0 0 0 0 4h8.308a2.006 2.006 0 0 0 0-4zm45.846 0H64a2 2 0 0 0 0 4h15.94v2H72a2 2 0 0 0 0 4h25a2 2 0 0 0 0-4h-8.94v-2H104a2 2 0 0 0 0-4z"></path>
  <path fill="#2d4356" d="M160 148.02h-3a2 2 0 0 0 0 4h3a2 2 0 0 0 0-4Z"></path>
  <circle cx="166" cy="150.019" r="2" fill="#2d4356"></circle>
  <path fill="#2d4356" d="M150.721 148.02h-7.36c-13.17-15.508-6.724-57.524-1.99-88.33 1.322-8.595 2.463-16.017 3.05-21.981a14.409 14.409 0 0 0-3.256-10.982 7.531 7.531 0 0 0-5.503-2.708 1.326 1.326 0 0 1-.529 0H35.867a1.971 1.971 0 0 0-.225.023c-.125-.008-.249-.023-.374-.023-6.928 0-11.768 5.549-11.768 13.493v46.86a6.702 6.702 0 0 0 6.512 6.863h2.604c-2.353 22.311-2.511 44.466 5.375 56.784H17.28a2.017 2.017 0 1 0 0 4H150.72a2.017 2.017 0 1 0 0-4zM30.012 87.234a2.708 2.708 0 0 1-2.512-2.863v-46.86c0-4.379 2.035-9.493 7.768-9.493a3.641 3.641 0 0 1 2.54 1.396 10.436 10.436 0 0 1 2.238 7.901c-.577 5.856-1.71 13.229-3.022 21.767-1.347 8.766-2.831 18.418-3.964 28.152zm12.923 60.784c-13.15-15.521-6.69-57.536-1.958-88.329 1.322-8.595 2.462-16.017 3.05-21.981a14.912 14.912 0 0 0-2.262-9.69h93.368a1.326 1.326 0 0 1 .53 0 3.642 3.642 0 0 1 2.538 1.395 10.44 10.44 0 0 1 2.24 7.902c-.577 5.857-1.71 13.23-3.023 21.767-4.618 30.044-10.836 70.502.962 88.936zM145.658 8.134a3 3 0 1 0-3-3 3.003 3.003 0 0 0 3 3zm0-4.5a1.5 1.5 0 1 1-1.5 1.5 1.501 1.501 0 0 1 1.5-1.5zM162 76.724a2 2 0 1 0 2 2 2.002 2.002 0 0 0-2-2zm0 3a1 1 0 1 1 1-1 1.001 1.001 0 0 1-1 1zM6 6.02a2 2 0 1 0 2 2 2.002 2.002 0 0 0-2-2zm0 3a1 1 0 1 1 1-1 1.001 1.001 0 0 1-1 1z"></path>
  <path fill="#2d4356" d="M147.658 49.02a2 2 0 1 0 2 2 2.002 2.002 0 0 0-2-2zm0 3a1 1 0 1 1 1-1 1.001 1.001 0 0 1-1 1zm-111.51-34a2 2 0 1 0-2 2 2.002 2.002 0 0 0 2-2zm-3 0a1 1 0 1 1 1 1 1.001 1.001 0 0 1-1-1z"></path>
  <path fill="#0bceb2" d="m10.888 69.03 1.487-1.955-.939-.532-.955 2.19h-.031l-.97-2.175-.955.548 1.471 1.909v.031l-2.301-.297v1.064l2.316-.297v.031l-1.486 1.908.891.564 1.018-2.206h.031l.939 2.19.986-.563-1.502-1.878v-.031l2.362.282v-1.064l-2.362.313v-.032zM71.734 3.711l-.856 1.099.514.324.586-1.27h.018l.54 1.261.568-.324-.865-1.081v-.018l1.36.162v-.613l-1.36.18v-.018l.856-1.126-.54-.306-.55 1.261h-.018l-.558-1.252-.551.315.848 1.099v.018l-1.325-.171v.613l1.333-.171v.018zM164.724 28.579v-1.043l-2.317.306v-.03l1.459-1.918-.921-.522-.936 2.148h-.032l-.95-2.133-.938.537 1.444 1.873v.03l-2.257-.291v1.043l2.272-.291v.03l-1.459 1.872.875.553.999-2.164h.029l.921 2.149.968-.553-1.474-1.842v-.03l2.317.276zM108.351 17.807l1.258-1.654-.794-.451-.807 1.853h-.027l-.821-1.84-.808.464 1.245 1.615v.027l-1.947-.252v.9l1.96-.251v.026l-1.258 1.615.754.477.862-1.867h.026l.794 1.853.834-.476-1.271-1.589v-.026l1.999.238v-.9l-1.999.265v-.027z"></path>
</svg>
