<?xml version="1.0" encoding="iso-8859-1"?>
<!-- Uploaded to: SVG Repo, www.svgrepo.com, Generator: SVG Repo Mixer Tools -->
<svg fill="#000000" height="800px" width="800px" version="1.1" id="Layer_1" xmlns="http://www.w3.org/2000/svg" xmlns:xlink="http://www.w3.org/1999/xlink" 
	 viewBox="0 0 512 512" xml:space="preserve">
<g>
	<g>
		<path d="M256,82.286c-95.786,0-173.714,77.929-173.714,173.714c0,95.786,77.929,173.714,173.714,173.714
			c95.786,0,173.714-77.928,173.714-173.714C429.714,160.214,351.786,82.286,256,82.286z M256,411.429
			c-85.705,0-155.429-69.723-155.429-155.429c0-85.705,69.723-155.429,155.429-155.429S411.429,170.295,411.429,256
			C411.429,341.705,341.705,411.429,256,411.429z"/>
	</g>
</g>
<g>
	<g>
		<path d="M257.06,0c-5.049,0-9.143,4.094-9.143,9.143v45.714c0,5.049,4.094,9.143,9.143,9.143s9.143-4.094,9.143-9.143V9.143
			C266.203,4.094,262.109,0,257.06,0z"/>
	</g>
</g>
<g>
	<g>
		<path d="M437.018,74.982c-3.571-3.571-9.357-3.571-12.928,0l-32.326,32.326c-3.571,3.571-3.571,9.357,0,12.929
			c1.786,1.786,4.125,2.678,6.464,2.678c2.339,0,4.679-0.893,6.464-2.678l32.326-32.326
			C440.589,84.339,440.589,78.554,437.018,74.982z"/>
	</g>
</g>
<g>
	<g>
		<path d="M502.857,246.738h-45.714c-5.049,0-9.143,4.094-9.143,9.143s4.094,9.143,9.143,9.143h45.714
			c5.049,0,9.143-4.094,9.143-9.143S507.906,246.738,502.857,246.738z"/>
	</g>
</g>
<g>
	<g>
		<path d="M257.06,448c-5.049,0-9.143,4.094-9.143,9.143v45.714c0,5.049,4.094,9.143,9.143,9.143s9.143-4.094,9.143-9.143v-45.714
			C266.203,452.094,262.109,448,257.06,448z"/>
	</g>
</g>
<g>
	<g>
		<path d="M437.018,424.089l-32.326-32.326c-3.571-3.571-9.357-3.571-12.929,0c-3.571,3.571-3.571,9.357,0,12.929l32.326,32.326
			c1.786,1.786,4.125,2.678,6.464,2.678c2.339,0,4.679-0.893,6.464-2.678C440.589,433.447,440.589,427.661,437.018,424.089z"/>
	</g>
</g>
<g>
	<g>
		<path d="M120.237,391.763c-3.571-3.571-9.357-3.571-12.928,0l-32.326,32.326c-3.571,3.571-3.571,9.357,0,12.929
			c1.786,1.786,4.125,2.678,6.464,2.678c2.339,0,4.679-0.893,6.464-2.678l32.326-32.326
			C123.808,401.121,123.808,395.335,120.237,391.763z"/>
	</g>
</g>
<g>
	<g>
		<path d="M120.237,107.308L87.911,74.982c-3.571-3.571-9.357-3.571-12.929,0s-3.571,9.357,0,12.929l32.326,32.326
			c1.786,1.786,4.125,2.678,6.464,2.678c2.339,0,4.679-0.893,6.464-2.678C123.808,116.665,123.808,110.88,120.237,107.308z"/>
	</g>
</g>
<g>
	<g>
		<path d="M54.857,246.738H9.143c-5.049,0-9.143,4.094-9.143,9.143s4.094,9.143,9.143,9.143h45.714c5.049,0,9.143-4.094,9.143-9.143
			S59.906,246.738,54.857,246.738z"/>
	</g>
</g>
</svg>