<?xml version="1.0" encoding="iso-8859-1"?>
<!-- Uploaded to: SVG Repo, www.svgrepo.com, Generator: SVG Repo Mixer Tools -->
<svg fill="#000000" height="800px" width="800px" version="1.1" id="Layer_1" xmlns="http://www.w3.org/2000/svg" xmlns:xlink="http://www.w3.org/1999/xlink" 
	 viewBox="0 0 512 512" xml:space="preserve">
<g>
	<g>
		<path d="M464.886,371.354c-59.463,0-88.283,19.073-113.713,35.908c-29.896,19.759-53.468,35.376-126.315,11.106
			c-140.595-46.861-200.75-35.67-203.231-35.183c-6.256,1.252-10.29,7.31-9.078,13.577c1.201,6.256,7.207,10.392,13.565,9.197
			c0.544-0.113,57.979-10.058,191.4,34.429c29.182,9.723,51.893,13.588,70.479,13.588c34.633,0,54.93-13.429,75.987-27.363
			c23.81-15.758,48.425-32.049,100.907-32.049c6.415,0,11.605-5.196,11.605-11.605C476.491,376.55,471.301,371.354,464.886,371.354z
			"/>
	</g>
</g>
<g>
	<g>
		<path d="M464.886,429.378c-59.463,0-88.283,19.073-113.713,35.908c-29.896,19.764-53.468,35.375-126.315,11.106
			c-140.595-46.861-200.75-35.676-203.231-35.183c-6.256,1.252-10.29,7.31-9.078,13.577c1.201,6.256,7.207,10.386,13.565,9.197
			c0.544-0.102,57.979-10.052,191.4,34.429C246.696,508.135,269.407,512,287.993,512c34.633,0,54.93-13.429,75.987-27.363
			c23.81-15.758,48.425-32.049,100.907-32.049c6.415,0,11.605-5.196,11.605-11.605C476.491,434.574,471.301,429.378,464.886,429.378
			z"/>
	</g>
</g>
<g>
	<g>
		<path d="M256,0C121.627,0,12.299,109.322,12.299,243.701c0,39.591,9.712,78.916,28.105,113.719
			c2.074,3.938,6.097,6.182,10.268,6.182c1.825,0,3.683-0.431,5.406-1.343c5.666-2.992,7.842-10.013,4.839-15.685
			c-16.625-31.471-25.408-67.045-25.408-102.874C35.509,122.123,134.422,23.21,256,23.21c121.579,0,220.491,98.913,220.491,220.491
			c0,31.93-6.675,62.722-19.821,91.518c-2.663,5.831-0.102,12.715,5.723,15.378c5.848,2.663,12.727,0.085,15.378-5.734
			c14.552-31.845,21.929-65.878,21.929-101.163C499.701,109.322,390.373,0,256,0z"/>
	</g>
</g>
</svg>