<svg xmlns="http://www.w3.org/2000/svg" viewBox="0 0 48 48" id="book">
  <rect width="35" height="42" x="7" y="3" fill="#54c0eb" rx="3"></rect>
  <path fill="#2a4251" d="M16 3h-6a3 3 0 0 0-3 3v36a3 3 0 0 0 3 3h6Z"></path>
  <path fill="#f2f2f2" d="M35 13H21a1 1 0 0 1 0-2h14a1 1 0 0 1 0 2zm0 5H21a1 1 0 0 1 0-2h14a1 1 0 0 1 0 2zm0 5H21a1 1 0 0 1 0-2h14a1 1 0 0 1 0 2z"></path>
  <path fill="#232323" d="M11 13H5a1 1 0 0 1 0-2h6a1 1 0 0 1 0 2zm0 8H5a1 1 0 0 1 0-2h6a1 1 0 0 1 0 2zm0 8H5a1 1 0 0 1 0-2h6a1 1 0 0 1 0 2zm0 8H5a1 1 0 0 1 0-2h6a1 1 0 0 1 0 2z"></path>
  <path fill="#232323" d="M39 45H10a3 3 0 0 1-3-3V6a3 3 0 0 1 3-3h29a3 3 0 0 1 3 3v36a3 3 0 0 1-3 3ZM10 5a1 1 0 0 0-1 1v36a1 1 0 0 0 1 1h29a1 1 0 0 0 1-1V6a1 1 0 0 0-1-1Z"></path>
  <path fill="#232323" d="M15 45h-5a3 3 0 0 1-3-3V6a3 3 0 0 1 3-3h5a1 1 0 0 1 1 1v40a1 1 0 0 1-1 1ZM10 5a1 1 0 0 0-1 1v36a1 1 0 0 0 1 1h4V5Z"></path>
</svg>
