<svg xmlns="http://www.w3.org/2000/svg" viewBox="0 0 64 64" id="kaaba">
  <path d="M56.28,14l-24-7a1,1,0,0,0-.56,0l-24,7A1,1,0,0,0,7,15V28a1,1,0,0,0,1.16,1L9,28.85l22-3.67L32,25l1,.17,22,3.67.84.14H56a1,1,0,0,0,.65-.24A1,1,0,0,0,57,28V15A1,1,0,0,0,56.28,14ZM33,23.15,32.16,23h-.32l-.84.14L9,26.82V15.75L31,9.33,32,9l1,.29,22,6.42V26.82Z"></path>
  <polygon points="31 9.33 31 16.19 9 20.77 9 15.75 31 9.33" opacity=".5"></polygon>
  <polygon points="55 15.75 55 20.77 33 16.19 33 9.33 55 15.75" opacity=".5"></polygon>
  <path d="M56.2,21,55,20.77,33,16.19,32.2,16a.9.9,0,0,0-.4,0l-.8.17L9,20.77,7.8,21A1,1,0,0,0,7,22v6a1,1,0,0,0,1.16,1L9,28.85l22-3.67L32,25l1,.17,22,3.67.84.14H56a1,1,0,0,0,.65-.24A1,1,0,0,0,57,28V22A1,1,0,0,0,56.2,21ZM33,23.15,32.16,23h-.32l-.84.14L9,26.82v-4l22-4.58L32,18l1,.21,22,4.58v4Z"></path>
  <path d="M32.65,23.24A1,1,0,0,0,32,23h-.16l-.84.14L9,26.82,7.84,27A1,1,0,0,0,7,28V51a1,1,0,0,0,.8,1l24,5h0l.2,0,.2,0h0a1.09,1.09,0,0,0,.42-.2A1,1,0,0,0,33,56V24A1,1,0,0,0,32.65,23.24ZM9,28.85l22-3.67V54.77L9,50.19Z"></path>
  <path d="M29.92,30.17,31,30.08v-4.9L9,28.85v3.06l.91-.07a1,1,0,0,1,.17,2L9,33.92V50.19l22,4.58V32.09l-.91.07H30a1,1,0,0,1-.09-2ZM15.28,32.46a1,1,0,0,1-.92,1h-.08a1,1,0,0,1-.08-2h.08a1,1,0,0,1,1,.91Zm6.91.07a1,1,0,0,1-.68.35l-2.86.24h-.08a1,1,0,0,1-1-.92,1,1,0,0,1,.92-1.08l2.86-.24a1,1,0,0,1,1.08.92A1,1,0,0,1,22.19,32.53Zm4.29-.36a1,1,0,0,1-.68.35h-.08A1,1,0,0,1,25,30.88a1,1,0,0,1,1.76.56A1,1,0,0,1,26.48,32.17Z" opacity=".5"></path>
  <path d="M32,25l-1,.17v5.74A1,1,0,0,1,32,30h0a1,1,0,0,1,1,.92V25.18Zm0,0-1,.17v4.9l.92-.08h.16l.92.08v-4.9Zm0,0-1,.17v4.9l.92-.08h.16l.92.08v-4.9Zm0,0-1,.17v4.9l.92-.08h.16l.92.08v-4.9Zm0,0-1,.17v4.9l.92-.08h.16l.92.08v-4.9Zm0,0-1,.17v4.9l.92-.08h.16l.92.08v-4.9Zm24.16,2L55,26.82,33,23.15,32.16,23H32a1,1,0,0,0-1,1V56a1,1,0,0,0,.37.78,1.09,1.09,0,0,0,.42.2h0l.2,0,.2,0h0l24-5a1,1,0,0,0,.8-1V28A1,1,0,0,0,56.16,27ZM55,50.19,33,54.77V25.18l22,3.67ZM32,25l-1,.17v4.9l.92-.08h.16l.92.08v-4.9Zm0,0-1,.17v4.9l.92-.08h.16l.92.08v-4.9Zm0,0-1,.17v4.9l.92-.08h.16l.92.08v-4.9Zm0,0-1,.17v4.9l.92-.08h.16l.92.08v-4.9Zm0,0-1,.17v4.9l.92-.08h.16l.92.08v-4.9Zm0,0-1,.17v5.74A1,1,0,0,1,32,30h0a1,1,0,0,1,1,.92V25.18Z"></path>
  <path d="M54.09,31.84l.91.07V28.85L33,25.18v4.9l1.08.09a1,1,0,0,1-.09,2h-.08L33,32.09V54.77l22-4.58V33.92l-1.08-.09a1,1,0,0,1,.17-2Zm-15.81.68H38.2a1,1,0,0,1-.92-1.08,1,1,0,0,1,1.08-.91,1,1,0,0,1,.68.35,1,1,0,0,1,.24.72A1,1,0,0,1,38.28,32.52Zm7.15.6h-.08l-2.86-.24a1,1,0,0,1-.92-1.08,1,1,0,0,1,1.08-.92l2.86.24a1,1,0,0,1,.68.35,1,1,0,0,1,.24.73A1,1,0,0,1,45.43,33.12Zm5.28-.56a1,1,0,0,1-1,.92h-.09a1,1,0,0,1,.09-2h.08a1,1,0,0,1,.91,1Z" opacity=".5"></path>
  <path d="M33 8V24a1 1 0 0 1-2 0V8a1 1 0 0 1 .72-1 1 1 0 0 1 .56 0A1 1 0 0 1 33 8zM9 31.91v2L8.08 34H8a1 1 0 0 1-1-.92V33a1 1 0 0 1 .92-1zM33 30.92V31a1 1 0 0 1-.92 1H32l-1 .08v-2l.92-.08H32A1 1 0 0 1 33 30.92zM57 33v.07A1 1 0 0 1 56 34h-.08L55 33.92v-2l1.08.09A1 1 0 0 1 57 33z"></path>
  <path d="M33,30.08v2L32,32h-.1A1,1,0,0,1,31,31v-.07A1,1,0,0,1,32,30h.09Z"></path>
</svg>
