<svg xmlns="http://www.w3.org/2000/svg" viewBox="0 0 64 64" id="prayer">
  <path fill="#e1b872" d="M21,50l-2,6H15l1.32-4a3,3,0,0,1,2.84-2Z"></path>
  <path fill="#d5d2bd" d="M48,49.45V50a6,6,0,0,1-6,6H19l1.67-5L21,50h5a8.88,8.88,0,0,1-4.11-1A9,9,0,0,1,17,41V31.79a8.5,8.5,0,0,1,9.07-8.48,8.64,8.64,0,0,1,7.84,7.54L32,32.76,26.24,27A3,3,0,1,0,22,31.24L27.76,37A6,6,0,0,0,34,38.41v4.24l8.58.83A6,6,0,0,1,48,49.45Z"></path>
  <path fill="#e1b872" d="M32,13.5v4a5.5,5.5,0,0,1-10.07,3.07A5.56,5.56,0,0,1,21,17.5v-4A5.5,5.5,0,0,1,26.5,8a5.56,5.56,0,0,1,3.07.93,5.92,5.92,0,0,1,.82.68A5.49,5.49,0,0,1,32,13.5Z"></path>
  <path fill="#ecce93" d="M30.5,12v4A5.5,5.5,0,0,1,25,21.5a5.56,5.56,0,0,1-3.07-.93A5.56,5.56,0,0,1,21,17.5v-4A5.5,5.5,0,0,1,26.5,8a5.56,5.56,0,0,1,3.07.93A5.56,5.56,0,0,1,30.5,12Z"></path>
  <path fill="#c1bdab" d="M41,50a1,1,0,0,1-1,1H20.67L21,50h5a8.88,8.88,0,0,1-4.11-1H40A1,1,0,0,1,41,50Z"></path>
  <path fill="#5d8977" d="M53,57H8a1,1,0,0,1,0-2H53a1,1,0,0,1,0,2Z"></path>
  <path fill="#e7e4cd" d="M43.12,30.12,36.24,37A5.86,5.86,0,0,1,34,38.41,6,6,0,0,1,27.76,37L22,31.24A3,3,0,1,1,26.24,27L32,32.76l1.91-1.91,5-5,.56.56-.06.06,3.06,3.06.06-.06Z"></path>
  <path fill="#ecce93" d="M47.32,23.5a2.82,2.82,0,0,1-.82,2l-4.06,4.06L39.38,26.5l5-5a1.49,1.49,0,0,1,2.12,0A2.82,2.82,0,0,1,47.32,23.5Z"></path>
  <path fill="#112644" d="M39,44.13h-.1l-5-.48a1,1,0,0,1-.9-1V38.41a1,1,0,0,1,.68-.95,4.73,4.73,0,0,0,1.85-1.17l6.18-6.17-2.83-2.83-4.26,4.27a1,1,0,0,1-1.7-.57A7.64,7.64,0,0,0,26,24.31a7.5,7.5,0,0,0-8,7.48V32a1,1,0,0,1-2,0v-.21a9.46,9.46,0,0,1,18.47-2.91l3.7-3.71a1,1,0,0,1,1.42,0l4.24,4.24a1,1,0,0,1,0,1.42L37,37.71a6.89,6.89,0,0,1-2,1.37v2.66l4.1.39a1,1,0,0,1,.91,1.1A1,1,0,0,1,39,44.13Z"></path>
  <path fill="#112644" d="M42 57H15a1 1 0 0 1-.81-.42 1 1 0 0 1-.14-.9l1.32-4A4 4 0 0 1 19.16 49H20a10 10 0 0 1-4-8V38a1 1 0 0 1 2 0v3a8 8 0 0 0 8 8 1 1 0 0 1 0 2H19.16a2 2 0 0 0-1.89 1.36L16.39 55H42a5 5 0 0 0 5-5v-.55a5 5 0 0 0-4.22-4.93 1 1 0 1 1 .3-2A7 7 0 0 1 49 49.45V50A7 7 0 0 1 42 57zM26.5 24A6.51 6.51 0 0 1 20 17.5v-4a6.44 6.44 0 0 1 1-3.41 1 1 0 1 1 1.7 1.06A4.4 4.4 0 0 0 22 13.5v4a4.5 4.5 0 0 0 9 0v-4a4.47 4.47 0 0 0-1.32-3.18 4.54 4.54 0 0 0-4.54-1.11 1 1 0 0 1-.58-1.92A6.57 6.57 0 0 1 31.1 8.9 6.49 6.49 0 0 1 33 13.5v4A6.51 6.51 0 0 1 26.5 24z"></path>
  <path fill="#112644" d="M40 51H26a1 1 0 0 1 0-2H40a1 1 0 0 1 0 2zM19 57a1.25 1.25 0 0 1-.32 0 1 1 0 0 1-.63-1.27l2-6a1 1 0 1 1 1.9.64l-2 6A1 1 0 0 1 19 57zM32 39.75a7 7 0 0 1-5-2l-5.88-5.88a1 1 0 0 1 1.42-1.42l5.88 5.88a4.94 4.94 0 0 0 5.2 1.18 1 1 0 0 1 .66 1.88A6.86 6.86 0 0 1 32 39.75zM32 33.76a1 1 0 0 1-.71-.29l-5.88-5.88a1 1 0 0 1 1.42-1.42L32 31.35l1.2-1.21a1 1 0 0 1 1.42 1.42l-1.91 1.91A1 1 0 0 1 32 33.76zM42.44 30.56a1 1 0 0 1-.71-.29l-3.06-3.06a1 1 0 0 1 0-1.42l5-5a2.57 2.57 0 0 1 3.54 0 3.84 3.84 0 0 1 0 5.42l-4.06 4.06A1 1 0 0 1 42.44 30.56zM40.79 26.5l1.65 1.65 3.35-3.36a1.81 1.81 0 0 0 0-2.58.48.48 0 0 0-.7 0z"></path>
  <path fill="#112644" d="M53,57H8a1,1,0,0,1,0-2H53a1,1,0,0,1,0,2Z"></path>
</svg>
