<?xml version="1.0" encoding="utf-8" ?>
<svg xmlns="http://www.w3.org/2000/svg" xmlns:xlink="http://www.w3.org/1999/xlink" width="24" height="24" viewBox="0 0 24 24">
	<defs>
		<clipPath id="clipPath7042165273">
			<path transform="matrix(1 0 0 1 0 0)" d="M0 0L24 0L24 24L0 24L0 0Z" fill-rule="nonzero"/>
		</clipPath>
	</defs>
	<g clip-path="url(#clipPath7042165273)">
		<path transform="matrix(1 0 0 1 2.25 2.25)" d="M9.75 0C7.05761 0 4.75951 0.951903 2.85571 2.85571C0.951903 4.75951 0 7.05761 0 9.75C0 12.4424 0.951903 14.7405 2.85571 16.6443C4.75951 18.5481 7.05761 19.5 9.75 19.5C12.4424 19.5 14.7405 18.5481 16.6443 16.6443C18.5481 14.7405 19.5 12.4424 19.5 9.75C19.4972 7.05879 18.5443 4.7617 16.6413 2.85872C14.7383 0.955749 12.4412 0.00284171 9.75 0ZM14.5856 5.41781L11.5856 11.4178C11.5673 11.454 11.5437 11.4864 11.5151 11.5151C11.4864 11.5437 11.454 11.5673 11.4178 11.5856L5.41781 14.5856C5.34558 14.6219 5.26956 14.6336 5.18975 14.6208C5.10994 14.6079 5.04146 14.5729 4.9843 14.5157C4.92714 14.4585 4.89212 14.3901 4.87925 14.3103C4.86637 14.2304 4.87808 14.1544 4.91438 14.0822L7.91438 8.08219C7.93274 8.04603 7.95626 8.01361 7.98494 7.98494C8.01361 7.95626 8.04603 7.93274 8.08219 7.91438L14.0822 4.91438C14.1544 4.87808 14.2304 4.86637 14.3103 4.87925C14.3901 4.89212 14.4585 4.92714 14.5157 4.9843C14.5729 5.04146 14.6079 5.10994 14.6208 5.18975C14.6336 5.26956 14.6219 5.34558 14.5856 5.41781Z" fill-rule="nonzero" fill="rgb(117, 117, 117)"/>
	</g>
</svg>
