<svg xmlns="http://www.w3.org/2000/svg" enable-background="new 0 0 512 512" viewBox="0 0 512 512" id="ramzan">
  <path d="M488.837,313.212c-40.133,62.659-111.227,99.335-185.696,95.684C197.665,403.736,111,317.072,105.842,211.595
				c-3.638-74.405,33.022-145.558,95.682-185.688c10.745-6.882,3.372-23.323-8.904-19.987
				C75.757,37.634-3.916,148.673,3.179,269.947c7.61,130.126,111.484,233.998,241.611,241.613
				c121.843,7.13,232.464-73.117,264.029-189.442C512.156,309.822,495.688,302.486,488.837,313.212z M498.637,319.357
				c-30.415,112.072-136.979,188.486-253.23,181.669C120.619,493.722,21.012,394.114,13.71,269.328
				C6.909,153.014,83.31,46.517,195.382,16.107c0.745-0.203,1.003,0.559,0.453,0.912C130.002,59.184,91.477,133.939,95.3,212.11
				c5.42,110.835,96.491,201.903,207.326,207.329c78.122,3.764,152.926-34.694,195.099-100.535
				C498.083,318.33,498.821,318.652,498.637,319.357z"></path>
  <path d="M369.312,274.413V134.542h5.223c2.902,0,5.276-2.322,5.276-5.276c0-2.902-2.374-5.276-5.276-5.276h-2.057
				c3.324-8.758,5.065-17.992,5.065-27.594c0-38.78-58.618-69.434-73.022-76.451V5.276c0-2.955-2.374-5.276-5.276-5.276
				c-2.955,0-5.276,2.322-5.276,5.276v14.72c-14.457,6.965-73.127,37.619-73.127,76.399c0,9.655,1.741,18.888,5.118,27.594h-2.111
				c-2.902,0-5.276,2.374-5.276,5.276c0,2.955,2.374,5.276,5.276,5.276h5.224v139.871c-11.555,2.216-18.467,13.665-14.984,24.587
				c8.653,27.014,33.503,45.111,61.837,45.111h46.535c28.333,0,53.184-18.097,61.837-45.111
				C387.779,288.131,380.867,276.629,369.312,274.413z M326.101,134.542h32.659v139.396h-32.659V134.542z M282.836,134.542h32.712
				v139.396h-32.712V134.542z M239.625,134.542h32.659v139.396h-32.659V134.542z"></path>
</svg>
