<?xml version="1.0" encoding="utf-8" ?>
<svg xmlns="http://www.w3.org/2000/svg" xmlns:xlink="http://www.w3.org/1999/xlink" width="24" height="24" viewBox="0 0 24 24">
	<defs>
		<clipPath id="clipPath5217932052">
			<path transform="matrix(1 0 0 1 0 0)" d="M0 0L24 0L24 24L0 24L0 0Z" fill-rule="nonzero"/>
		</clipPath>
	</defs>
	<g clip-path="url(#clipPath5217932052)">
		<path transform="matrix(1 0 0 1 2.24876 1.96875)" d="M18.0195 10.0357Q18.0179 10.3056 17.9981 10.5748Q17.9945 10.6244 17.9902 10.6741L19.7799 12.0778Q19.7879 12.0841 19.7957 12.0906Q20.1501 12.3844 20.2309 12.8376Q20.3116 13.2909 20.0805 13.6891L18.0764 17.1566Q17.8383 17.558 17.4056 17.7092Q16.9729 17.8603 16.5445 17.6974L14.4265 16.8454Q14.4252 16.8455 14.4241 16.8463Q14.1563 17.0307 13.879 17.1922Q13.6026 17.3531 13.3148 17.4926L12.9994 19.737Q12.9977 19.7494 12.9955 19.7618Q12.9172 20.2099 12.572 20.5063Q12.2268 20.8027 11.772 20.8123L7.7464 20.8125Q7.28731 20.8047 6.94394 20.5198Q6.60057 20.2348 6.51068 19.7978Q6.5059 19.7746 6.5026 19.7511L6.18611 17.5096Q5.89242 17.3678 5.61458 17.2051Q5.3374 17.0427 5.07414 16.8588L2.97006 17.7057Q2.52869 17.874 2.09603 17.7232Q1.66338 17.5724 1.4293 17.1785L-0.580134 13.7019Q-0.810776 13.3053 -0.729945 12.8517Q-0.649113 12.398 -0.294128 12.1042Q-0.286693 12.0981 -0.279101 12.0921L1.50972 10.6863Q1.47921 10.3332 1.47921 10.0298Q1.47921 9.7189 1.50907 9.38769L-0.281595 7.98104Q-0.29223 7.97269 -0.302556 7.96395Q-0.651399 7.66898 -0.729382 7.21884Q-0.807365 6.76871 -0.578079 6.37358L1.42612 2.90595Q1.66417 2.50446 2.09686 2.35331Q2.52956 2.20216 2.95797 2.36507L5.07602 3.21713Q5.07731 3.21698 5.07838 3.21624Q5.34615 3.03182 5.62353 2.87034Q5.89992 2.70944 6.18767 2.56986L6.50307 0.325471Q6.50481 0.313065 6.50697 0.300724Q6.5853 -0.147445 6.93048 -0.443822Q7.27566 -0.7402 7.73052 -0.749832L11.7561 -0.75Q12.2152 -0.74217 12.5585 -0.457258Q12.9019 -0.172351 12.9918 0.264685Q12.9966 0.28792 12.9999 0.311412L13.3164 2.55294Q13.6101 2.6947 13.8879 2.85744Q14.165 3.01978 14.4283 3.20373L16.5324 2.35675Q16.9738 2.18854 17.4064 2.33935Q17.8391 2.49015 18.0732 2.88405L20.0826 6.36063Q20.3133 6.75719 20.2324 7.21084Q20.1516 7.66448 19.7966 7.95826Q19.7892 7.96441 19.7816 7.97037L17.9906 9.37792Q18.0195 9.74026 18.0195 10.0312L18.0195 10.0357ZM16.5195 10.0291Q16.5194 9.79867 16.4969 9.51552Q16.4619 9.13535 16.6126 8.78461Q16.7633 8.43384 17.0642 8.19681L18.6787 6.92919L16.8879 3.83063L14.9882 4.59533Q14.6364 4.73686 14.2597 4.69422Q13.8829 4.65158 13.5703 4.4341Q13.3557 4.28409 13.1298 4.15175Q12.9038 4.01941 12.6718 3.90737Q12.3311 3.74524 12.1073 3.44145Q11.8836 3.13767 11.8295 2.76171L11.5468 0.749991L7.95817 0.74984L7.67315 2.77803Q7.62156 3.14885 7.4015 3.45174Q7.18145 3.75464 6.84401 3.91864Q6.60641 4.03381 6.37821 4.16667Q6.15001 4.29952 5.93598 4.44689Q5.62476 4.66377 5.24792 4.70724Q4.87108 4.75072 4.51594 4.60931L2.61632 3.84425L0.825283 6.94307L2.43466 8.20732Q2.73299 8.44125 2.88434 8.78884Q3.0357 9.13643 3.00333 9.51868Q2.97921 9.78468 2.97921 10.0298Q2.97921 10.2685 3.00307 10.5453Q3.03892 10.9248 2.88947 11.2755Q2.74003 11.6262 2.4383 11.8657L0.823771 13.1333L2.61459 16.2319L4.51428 15.4672Q4.86605 15.3256 5.24282 15.3683Q5.61959 15.4109 5.93216 15.6284Q6.14674 15.7784 6.37271 15.9107Q6.59865 16.0431 6.83075 16.1551Q7.17141 16.3173 7.39514 16.6211Q7.61887 16.9248 7.67301 17.3008L7.95571 19.3125L11.5443 19.3127L11.8293 17.2845Q11.8809 16.9137 12.101 16.6108Q12.321 16.3079 12.6585 16.1439Q12.8961 16.0287 13.1243 15.8958Q13.3525 15.763 13.5665 15.6156Q13.8777 15.3987 14.2546 15.3553Q14.6314 15.3118 14.9865 15.4532L16.8862 16.2183L18.6772 13.1193L16.7349 11.5959Q16.6573 11.535 16.598 11.4561Q16.5388 11.3772 16.502 11.2856Q16.4651 11.194 16.4533 11.096Q16.4414 10.9981 16.4553 10.9003Q16.4861 10.6834 16.5022 10.4647Q16.5181 10.2482 16.5195 10.0313L16.5195 10.0291ZM12.4016 7.38087Q11.4542 6.43344 10.121 6.29954L10.1198 6.29941Q8.50179 6.13961 7.27919 7.21141Q6.05659 8.28322 6.00325 9.90822Q5.94991 11.5332 7.09959 12.6829Q8.24926 13.8326 9.87426 13.7792Q11.4993 13.7259 12.5711 12.5033Q13.6429 11.2807 13.4831 9.66269Q13.3491 8.3283 12.4016 7.38087ZM9.97113 7.79203L9.97237 7.79215Q10.7723 7.8729 11.341 8.44153Q11.91 9.0106 11.9903 9.81012Q12.0862 10.7809 11.4431 11.5145Q10.8001 12.248 9.82505 12.28Q8.85005 12.312 8.16024 11.6222Q7.47044 10.9324 7.50245 9.95744Q7.53445 8.98243 8.26801 8.33935Q9.0011 7.69668 9.97113 7.79203Z" fill-rule="evenodd" fill="rgb(107, 114, 128)"/>
	</g>
</svg>
