<svg xmlns="http://www.w3.org/2000/svg" xml:space="preserve" width="655.359" height="655.359" style="shape-rendering:geometricPrecision;text-rendering:geometricPrecision;image-rendering:optimizeQuality;fill-rule:evenodd;clip-rule:evenodd" viewBox="0 0 6.827 6.827" id="holy">
  <g id="Layer_x0020_1">
    <path d="M4.995 5.541a.08.08 0 0 1-.088.133l-1.5-.991-1.501.991a.08.08 0 0 1-.088-.133c.499-.33 1.124-.731 1.543-1.02a.08.08 0 0 1 .09 0l1.544 1.02z" style="fill:#000;fill-rule:nonzero"></path>
    <path d="M3.493 4.338c.872-.765 1.896-.71 2.27-.658L4.78 1.302c-.223.019-1.056.13-1.286.744v2.292zm2.382-.476c-.004-.001-1.356-.33-2.402.713a.08.08 0 0 1-.14-.053V2.034a.08.08 0 0 1 .005-.029c.281-.79 1.386-.86 1.482-.865a.08.08 0 0 1 .084.048l-.074.031.074-.03 1.06 2.559a.08.08 0 0 1-.09.114h.001z" style="fill:#000;fill-rule:nonzero"></path>
    <path d="M3.785 3.607c.53-.436 1.134-.432 1.405-.402l-.615-1.484c-.164.016-.65.095-.79.46v1.426zm1.534-.3-.019.077c-.002 0-.866-.21-1.535.455a.08.08 0 0 1-.14-.052v-1.62a.08.08 0 0 1 .004-.028c.187-.524.909-.577.988-.581a.08.08 0 0 1 .084.048l-.074.031.074-.03.689 1.663a.08.08 0 0 1-.09.114l.019-.078zM3.353 4.575C2.307 3.532.956 3.861.952 3.862a.08.08 0 0 1-.09-.114l1.06-2.56.074.031-.074-.03a.08.08 0 0 1 .084-.05c.097.005 1.201.077 1.483.866a.08.08 0 0 1 .004.029v2.488a.08.08 0 0 1-.14.053zm-2.29-.895c.375-.053 1.399-.107 2.27.658V2.046c-.229-.614-1.063-.725-1.285-.744L1.063 3.68z" style="fill:#000;fill-rule:nonzero"></path>
    <path d="M3.062 3.84c-.67-.667-1.533-.457-1.536-.456l-.018-.078.018.078a.08.08 0 0 1-.09-.114l.69-1.663.074.03-.074-.03a.08.08 0 0 1 .084-.05c.08.005.8.058.987.582a.08.08 0 0 1 .005.029v1.619a.08.08 0 0 1-.14.052zm-1.426-.635c.272-.03.875-.034 1.406.402V2.18c-.14-.364-.626-.443-.79-.46l-.616 1.485z" style="fill:#000;fill-rule:nonzero"></path>
  </g>
  <path d="M0 0h6.827v6.827H0z" style="fill:none"></path>
</svg>
