<svg xmlns="http://www.w3.org/2000/svg" enable-background="new 0 0 512 512" viewBox="0 0 512 512" id="coming-soon">
  <g>
    <g>
      <circle cx="256" cy="189.7" r="170.8" fill="#66318f"></circle>
      <circle cx="256" cy="189.7" r="141.2" fill="#f3f3f3"></circle>
      <g>
        <path fill="#66318f" d="M128.8 200.1H97.2v-20.8h31.6c5.7 0 10.4 4.6 10.4 10.4v0C139.2 195.5 134.6 200.1 128.8 200.1zM383.2 200.1h31.6v-20.8h-31.6c-5.7 0-10.4 4.6-10.4 10.4v0C372.8 195.5 377.4 200.1 383.2 200.1z"></path>
      </g>
      <g>
        <path fill="#66318f" d="M245.6 62.6V30.9l20.8 0v31.6c0 5.7-4.6 10.4-10.4 10.4h0C250.3 72.9 245.6 68.3 245.6 62.6zM245.6 316.9l0 31.6h20.8v-31.6c0-5.7-4.6-10.4-10.4-10.4h0C250.3 306.5 245.6 311.2 245.6 316.9z"></path>
      </g>
      <g>
        <path fill="#66318f" d="M158.7 107.2l-22.4-22.4L151 70.1l22.4 22.4c4.1 4.1 4.1 10.6 0 14.7l0 0C169.4 111.2 162.8 111.2 158.7 107.2zM338.6 287l22.4 22.4 14.7-14.7-22.4-22.4c-4.1-4.1-10.6-4.1-14.7 0l0 0C334.5 276.4 334.5 283 338.6 287z"></path>
      </g>
      <g>
        <path fill="#66318f" d="M353.3 107.2l22.4-22.4L361 70.1l-22.4 22.4c-4.1 4.1-4.1 10.6 0 14.7v0C342.6 111.2 349.2 111.2 353.3 107.2zM173.4 287L151 309.4l-14.7-14.7 22.4-22.4c4.1-4.1 10.6-4.1 14.7 0h0C177.5 276.4 177.5 283 173.4 287z"></path>
      </g>
      <g>
        <path fill="#66318f" d="M306.6,252.5l-58.1-58.1c-2-2-3.1-4.7-3.1-7.5v-52.2c0-5.9,4.7-10.6,10.6-10.6h0c5.9,0,10.6,4.7,10.6,10.6
				v47.8l55,55c4.1,4.1,4.1,10.8,0,15l0,0C317.4,256.6,310.7,256.6,306.6,252.5z"></path>
      </g>
    </g>
    <g>
      <path fill="#f15b27" d="M117 440.8c-3.2-2.1-6.8-3.8-10.8-5-3.9-1.2-7.9-2.3-11.8-3.1-3.9-.8-7.6-1.7-10.8-2.4-3.3-.8-5.9-1.8-7.9-3.1-2-1.2-3-2.9-3-5.1 0-1.7.5-3.2 1.5-4.4 1-1.3 2.7-2.3 5-3.1 2.3-.8 5.4-1.2 9.2-1.2 4.3 0 8.7.6 13.2 1.9 4.5 1.2 9.1 3.1 13.8 5.6l8.5-20.4c-4.8-2.8-10.3-4.9-16.5-6.3-6.2-1.4-12.4-2.2-18.8-2.2-9.5 0-17.5 1.4-23.9 4.3-6.4 2.9-11.2 6.7-14.4 11.4s-4.8 10-4.8 15.8c0 5.2 1 9.5 3.1 12.9 2 3.4 4.7 6.1 7.9 8.2 3.2 2.1 6.8 3.8 10.8 5.1 3.9 1.3 7.9 2.4 11.8 3.2 3.9.8 7.5 1.7 10.8 2.5 3.2.8 5.9 1.9 7.9 3.2 2 1.3 3.1 3.1 3.1 5.3 0 1.6-.5 2.9-1.6 4.1-1.1 1.2-2.8 2.1-5.1 2.8-2.3.7-5.4 1-9.2 1-5.7 0-11.3-.9-17-2.7-5.7-1.8-10.7-4.1-15.1-6.9l-9 20.3c4.6 3.1 10.6 5.7 18 7.7 7.4 2 15 3 23 3 9.6 0 17.6-1.4 24-4.3 6.3-2.9 11.1-6.7 14.3-11.5 3.2-4.8 4.8-10 4.8-15.6 0-5.1-1-9.3-3-12.7C122.8 445.6 120.2 442.8 117 440.8zM228.2 406.3c-4.8-4.6-10.5-8.1-17-10.6-6.5-2.5-13.7-3.8-21.6-3.8-7.8 0-15 1.3-21.6 3.8-6.6 2.5-12.3 6.1-17.2 10.6-4.9 4.6-8.6 9.9-11.3 16.1-2.7 6.1-4 12.8-4 20.2s1.3 14 4 20.2c2.7 6.1 6.5 11.5 11.3 16.1 4.9 4.6 10.6 8.1 17.2 10.6 6.6 2.5 13.8 3.8 21.6 3.8 7.9 0 15.1-1.3 21.6-3.8 6.5-2.5 12.2-6 17-10.6 4.8-4.5 8.6-9.9 11.3-16.1 2.7-6.2 4.1-12.9 4.1-20.2s-1.4-14-4.1-20.2C236.8 416.2 233 410.9 228.2 406.3zM213.8 453.9c-1.3 3.4-3.2 6.4-5.6 8.8-2.4 2.5-5.1 4.3-8.3 5.6-3.2 1.3-6.7 1.9-10.4 1.9-3.7 0-7.2-.6-10.4-1.9-3.2-1.3-6-3.2-8.3-5.6-2.4-2.5-4.2-5.4-5.6-8.8-1.3-3.4-2-7.2-2-11.4 0-4.3.7-8.1 2-11.5 1.3-3.4 3.2-6.3 5.6-8.8 2.4-2.5 5.1-4.3 8.3-5.6 3.2-1.3 6.6-1.9 10.4-1.9 3.7 0 7.2.6 10.4 1.9 3.2 1.3 6 3.2 8.3 5.6s4.2 5.4 5.6 8.8c1.3 3.4 2 7.2 2 11.5C215.8 446.7 215.1 450.5 213.8 453.9zM345.8 406.3c-4.8-4.6-10.5-8.1-17-10.6-6.5-2.5-13.7-3.8-21.6-3.8-7.8 0-15 1.3-21.6 3.8-6.6 2.5-12.3 6.1-17.2 10.6-4.9 4.6-8.6 9.9-11.3 16.1-2.7 6.1-4 12.8-4 20.2s1.3 14 4 20.2c2.7 6.1 6.5 11.5 11.3 16.1 4.9 4.6 10.6 8.1 17.2 10.6 6.6 2.5 13.8 3.8 21.6 3.8 7.9 0 15.1-1.3 21.6-3.8 6.5-2.5 12.2-6 17-10.6 4.8-4.5 8.6-9.9 11.3-16.1 2.7-6.2 4.1-12.9 4.1-20.2s-1.4-14-4.1-20.2C354.4 416.2 350.6 410.9 345.8 406.3zM331.4 453.9c-1.3 3.4-3.2 6.4-5.6 8.8-2.4 2.5-5.1 4.3-8.3 5.6-3.2 1.3-6.7 1.9-10.4 1.9-3.7 0-7.2-.6-10.4-1.9-3.2-1.3-6-3.2-8.3-5.6-2.4-2.5-4.2-5.4-5.6-8.8-1.3-3.4-2-7.2-2-11.4 0-4.3.7-8.1 2-11.5 1.3-3.4 3.2-6.3 5.6-8.8s5.1-4.3 8.3-5.6c3.2-1.3 6.6-1.9 10.4-1.9 3.7 0 7.2.6 10.4 1.9 3.2 1.3 6 3.2 8.3 5.6 2.4 2.5 4.2 5.4 5.6 8.8 1.3 3.4 2 7.2 2 11.5C333.4 446.7 332.8 450.5 331.4 453.9z"></path>
      <polygon fill="#f15b27" points="441.3 393.8 441.3 445.7 398.4 393.8 375.7 393.8 375.7 491.1 402.7 491.1 402.7 439.3 445.6 491.1 468.3 491.1 468.3 393.8"></polygon>
    </g>
  </g>
</svg>
